<svg width="38" height="44" viewBox="0 0 38 44" fill="none" xmlns="http://www.w3.org/2000/svg">
<path d="M1.92938 13.5657L0.423845 15.6252C0.272637 15.8322 0.175911 16.0739 0.142503 16.3283C0.109098 16.5826 0.140082 16.8415 0.23262 17.0812C0.32516 17.3209 0.476299 17.5338 0.672224 17.7004C0.868146 17.867 1.1026 17.982 1.35414 18.0349L16.0419 21.1197L10.7347 28.7301L5.41825 29.0342C4.38092 29.0749 3.78456 29.2764 3.00974 30.3363L1.99624 31.7228C1.82869 31.9371 1.71545 32.1888 1.66613 32.4565C1.6168 32.7242 1.63284 33.0001 1.7129 33.2607C1.82747 33.627 2.1174 34.1167 2.84872 34.3806L9.48104 36.8761C9.53067 36.8945 9.58199 36.9107 9.63367 36.9247C9.63807 36.9268 9.64203 36.9297 9.64531 36.9332C9.67396 36.9787 9.70516 37.0225 9.73876 37.0645L14.163 42.6538C14.6321 43.252 15.178 43.3721 15.5544 43.3671C15.8073 43.3638 16.0557 43.3013 16.2796 43.1846C16.5035 43.0679 16.6967 42.9002 16.8437 42.6951L17.9137 41.2313C18.4923 40.4398 18.6976 39.4111 18.4527 38.5388L17.1437 33.4781L22.7596 26.0303L30.1378 39.0736C30.2644 39.2973 30.445 39.4859 30.663 39.6222C30.8811 39.7584 31.1297 39.838 31.3862 39.8537C31.6426 39.8693 31.8986 39.8205 32.1309 39.7117C32.3632 39.6029 32.5643 39.4376 32.7158 39.2309L34.2378 37.149C34.4442 36.8542 34.5814 36.5166 34.6392 36.1611C34.697 35.8057 34.6738 35.4416 34.5714 35.0958L29.8448 16.7958L33.2301 12.4125C33.4871 12.0983 34.1562 11.1961 34.3095 10.9864C37.4325 6.70935 37.9062 3.13822 35.5728 1.43248C34.8385 0.895678 33.2632 0.192831 30.9666 1.51619C29.6098 2.29679 28.224 3.64842 26.8463 5.5331C26.6947 5.74045 26.0397 6.64942 25.815 6.99438L22.6678 11.5505L3.77889 12.6242C3.41926 12.6325 3.06634 12.7214 2.74621 12.8843C2.42608 13.0473 2.14693 13.2802 1.92938 13.5657Z" fill="#604BE8"/>
</svg>
