<svg width="40" height="40" viewBox="0 0 40 40" fill="none" xmlns="http://www.w3.org/2000/svg">
<path d="M39.7896 0.542769C39.7733 0.46373 39.7348 0.39098 39.6786 0.333049C39.6225 0.275117 39.551 0.234404 39.4726 0.215682C34.2431 -1.06407 22.1598 3.49638 15.6133 10.0462C14.4457 11.2054 13.3812 12.4643 12.432 13.8085C10.4132 13.6298 8.39446 13.779 6.6739 14.5297C1.81936 16.6683 0.405951 22.2484 0.0121949 24.6489C-0.0101396 24.7803 -0.00171502 24.915 0.0368059 25.0426C0.0753268 25.1702 0.142894 25.2871 0.234192 25.3841C0.325491 25.4811 0.438031 25.5556 0.562962 25.6017C0.687893 25.6478 0.821808 25.6643 0.954173 25.6498L8.74982 24.7892C8.75539 25.3775 8.79086 25.9651 8.85608 26.5497C8.89531 26.9557 9.07538 27.3352 9.36501 27.6221L12.3838 30.6365C12.6708 30.926 13.0497 31.1062 13.4553 31.1459C14.0361 31.211 14.6199 31.2464 15.2044 31.2523L14.349 39.0451C14.3347 39.1776 14.3513 39.3115 14.3975 39.4365C14.4436 39.5615 14.518 39.674 14.6149 39.7654C14.7118 39.8567 14.8285 39.9243 14.9558 39.963C15.0832 40.0016 15.2178 40.0101 15.349 39.988C17.7428 39.6037 23.3277 38.189 25.4519 33.3301C26.2019 31.608 26.3554 29.5972 26.1822 27.5864C27.5285 26.6363 28.7896 25.5705 29.951 24.4013C36.5181 17.8614 41.0485 6.03711 39.7896 0.542769ZM23.3992 16.5995C22.7995 15.9997 22.391 15.2354 22.2254 14.4032C22.0598 13.571 22.1446 12.7083 22.4688 11.9243C22.7931 11.1403 23.3425 10.4702 24.0473 9.99873C24.7522 9.52726 25.5809 9.2756 26.4287 9.2756C27.2764 9.2756 28.1052 9.52726 28.81 9.99873C29.5149 10.4702 30.0642 11.1403 30.3885 11.9243C30.7128 12.7083 30.7975 13.571 30.6319 14.4032C30.4663 15.2354 30.0578 15.9997 29.4582 16.5995C29.0605 16.9981 28.5883 17.3143 28.0685 17.53C27.5486 17.7457 26.9914 17.8568 26.4287 17.8568C25.8659 17.8568 25.3087 17.7457 24.7889 17.53C24.269 17.3143 23.7968 16.9981 23.3992 16.5995Z" fill="#604BE8"/>
</svg>
