<svg width="40" height="40" viewBox="0 0 40 40" fill="none" xmlns="http://www.w3.org/2000/svg">
<path d="M34.1267 8.53021L38.1165 12.52C39.4449 13.8495 40.7755 12.52 39.4449 11.1893L28.8063 0.550711C27.4779 -0.778823 26.1472 0.550711 27.4779 1.88025L31.4665 5.87C31.4665 5.87 28.8074 5.87 26.1472 8.53021L23.487 11.1893L13.1382 0.840438C12.7087 0.411068 12.1262 0.169862 11.5189 0.169862C10.9116 0.169862 10.3291 0.411068 9.89963 0.840438L8.58155 2.15738C8.26799 2.47066 8.05208 2.8682 7.96 3.30178C7.86792 3.73535 7.90362 4.18633 8.06279 4.60001L14.178 20.4995L6.19846 31.138L1.58345 28.8305C1.35124 28.7138 1.08502 28.6837 0.832596 28.7456C0.58017 28.8075 0.358082 28.9573 0.206207 29.1682C0.0543365 29.3791 -0.0173721 29.6373 0.00396729 29.8963C0.0253029 30.1553 0.138287 30.3983 0.322628 30.5815L9.41523 39.6741C9.59822 39.8599 9.84164 39.9741 10.1015 39.9961C10.3614 40.0181 10.6205 39.9464 10.8321 39.794C11.0437 39.6416 11.1938 39.4185 11.2553 39.165C11.3168 38.9116 11.2856 38.6445 11.1673 38.4121L8.85868 33.7971L19.4972 25.8187L35.3967 31.9339C35.8102 32.0928 36.261 32.1284 36.6943 32.0363C37.1277 31.9443 37.525 31.7285 37.8382 31.4152L39.1551 30.0982C39.3679 29.8855 39.5367 29.633 39.6518 29.3551C39.767 29.0771 39.8263 28.7792 39.8263 28.4784C39.8263 28.1775 39.767 27.8796 39.6518 27.6017C39.5367 27.3238 39.3679 27.0712 39.1551 26.8586L28.8074 16.5097L31.4665 13.8495C34.1267 11.1893 34.1267 8.53021 34.1267 8.53021Z" fill="#604BE8"/>
</svg>
